<svg width="605" height="874" viewBox="0 0 605 874" fill="none" xmlns="http://www.w3.org/2000/svg">
<path fill-rule="evenodd" clip-rule="evenodd" d="M301.976 873.77L202.859 803.891L0 660.873V164.42C0 164.42 111.659 123 302.386 123C493.115 123 603.958 164.42 603.958 164.42V660.873L301.976 873.77Z" fill="white"/>
<mask id="mask0_1332_29278" style="mask-type:alpha" maskUnits="userSpaceOnUse" x="18" y="142" width="568" height="705">
<path fill-rule="evenodd" clip-rule="evenodd" d="M301.979 846.717L209.065 781.208L18.9014 647.133V181.724C18.9014 181.724 123.573 142.895 302.363 142.895C481.156 142.895 585.062 181.724 585.062 181.724V647.133L301.979 846.717Z" fill="#168982"/>
</mask>
<g mask="url(#mask0_1332_29278)">
<g filter="url(#filter0_d_1332_29278)">
<mask id="mask1_1332_29278" style="mask-type:alpha" maskUnits="userSpaceOnUse" x="-88" y="36" width="780" height="780">
<circle cx="301.982" cy="425.975" r="389.907" fill="#C4C4C4"/>
</mask>
<g mask="url(#mask1_1332_29278)">
<rect x="-379.913" y="119.491" width="1308.71" height="503.174" fill="url(#paint0_linear_1332_29278)"/>
</g>
</g>
</g>
<mask id="mask2_1332_29278" style="mask-type:alpha" maskUnits="userSpaceOnUse" x="18" y="143" width="567" height="704">
<path fill-rule="evenodd" clip-rule="evenodd" d="M301.077 846.712L208.164 781.213L18 647.159V181.824C18 181.824 122.671 143 301.462 143C480.255 143 584.161 181.824 584.161 181.824V647.159L301.077 846.712Z" fill="white"/>
</mask>
<g mask="url(#mask2_1332_29278)">
<mask id="mask3_1332_29278" style="mask-type:alpha" maskUnits="userSpaceOnUse" x="13" y="137" width="576" height="716">
<path fill-rule="evenodd" clip-rule="evenodd" d="M301.179 852.165L206.84 785.651L13.7592 649.519V176.971C13.7592 176.971 120.036 137.546 301.57 137.546C483.106 137.546 588.606 176.971 588.606 176.971V649.519L301.179 852.165Z" fill="#F6F7FB"/>
</mask>
<g mask="url(#mask3_1332_29278)">
<path d="M637.248 369.088C788.417 218.671 929.651 551.683 964.462 573.671L-536.544 1412.26C-638.673 1219.12 -1023.25 516.811 -776.726 691.056C-585.01 826.561 -217.133 789.159 -63.5249 534.378C99.1038 264.636 348.19 656.708 637.248 369.088Z" fill="url(#paint1_linear_1332_29278)"/>
<g style="mix-blend-mode:overlay">
<path d="M-356.63 763.496C-523.789 756.166 -417.245 927.975 -425.81 959.124L887.816 652.112C844.962 486.135 684.35 -28.4385 633.483 202.896C593.926 382.799 360.83 555.538 137.099 488.978C-99.7704 418.508 -36.9972 777.513 -356.63 763.496Z" fill="url(#paint2_linear_1332_29278)"/>
</g>
</g>
</g>
<path d="M300.997 836.826L212.429 774.436L25.5 642.758V187.14C28.62 186.113 33.2121 184.664 39.222 182.931C51.6362 179.349 70.0988 174.551 94.1334 169.747C142.203 160.137 212.554 150.5 301.381 150.5C390.209 150.5 460.368 160.137 508.243 169.746C532.181 174.55 550.546 179.347 562.886 182.927C568.847 184.657 573.402 186.103 576.5 187.128V642.758L300.997 836.826Z" stroke="black" stroke-opacity="0.5" stroke-width="15" stroke-miterlimit="10"/>
<path d="M442.43 695.716L420.622 505.319H300.757V795.345L302.484 796.984C349.117 764.936 395.766 731.18 442.43 695.716Z" fill="#3B3B63"/>
<path d="M162.613 697.218L302.485 796.983L302.554 499.52H181.419L162.613 697.218Z" fill="#54547B"/>
<path d="M362.337 640.86C362.337 673.572 331.44 689.788 303.097 689.788C274.753 689.788 243.232 673.572 243.232 640.86H362.337Z" fill="#BA9275"/>
<path d="M302.783 657.779C280.028 657.779 268.964 641.269 268.964 607.33H279.813C279.813 647.063 295.323 647.063 302.783 647.063C310.24 647.063 325.753 647.063 325.753 607.33H336.599C336.599 641.269 325.534 657.779 302.783 657.779Z" fill="white"/>
<path d="M302.485 615.617C309.486 633.818 323.018 642.919 343.082 642.919C362.726 642.919 383.224 632.696 392.559 607.435C405.598 572.095 405.469 522.905 405.469 522.905C405.469 522.905 463.41 451.2 463.41 426.953H302.485V615.617Z" fill="#C3997D"/>
<path d="M139.227 426.953C139.227 455.034 196.667 522.905 196.667 522.905C196.667 522.905 196.526 572.081 209.578 607.435C218.892 632.679 239.412 642.919 259.059 642.919C279.123 642.919 293.598 633.818 302.484 615.617V426.953H139.227Z" fill="#D7B79F"/>
<path d="M456.49 265.497C411.826 220.224 400.656 125.819 400.656 125.819C392.317 155.566 374.19 243.273 374.19 243.273C374.19 243.273 338.984 232.018 301.062 231.959C299.816 231.959 299.816 350.13 301.062 586.474L337.164 560.678L343.876 435.491L382.319 478.849L431.838 493.153C431.838 493.153 450.367 480.093 450.367 480.142C458.234 469.252 460.842 459.973 462.746 455.157C469.624 437.641 454.18 303.685 454.18 303.685C448.697 292.34 456.49 265.497 456.49 265.497Z" fill="#3B3B63"/>
<path d="M231.723 243.268C231.723 243.268 213.589 155.564 205.257 125.813C205.257 125.813 194.094 220.218 149.421 265.491C149.421 265.491 157.216 292.337 151.733 303.678C151.733 303.678 136.29 437.644 143.168 455.132C145.067 459.948 147.698 469.223 155.553 480.117C155.553 480.068 174.093 493.132 174.093 493.132L223.602 478.824L262.036 435.47L268.766 560.66L302.521 585.771V231.295C264.458 231.358 231.723 243.268 231.723 243.268Z" fill="#54547B"/>
<path d="M425.235 38.3308C432.644 51.9842 496.353 178.206 496.353 221.917L468.097 297.999C472.878 340.93 482.384 434.208 475.209 452.43C470.777 463.705 453.886 486.893 439.439 505.671L459.192 683.882L432.491 702.891L417.645 572.675C415.603 585.889 412.535 599.998 407.859 612.67C401.673 629.439 390.741 642.146 376.761 649.674C375.94 689.879 338.435 711.569 303.097 711.569C267.466 711.569 229.647 689.897 228.813 649.706C214.804 642.164 203.859 629.456 197.666 612.67C193.267 600.189 190.063 587.318 188.098 574.23L173.897 705.285L147.051 685.969L166.438 506.213C151.878 487.351 134.662 463.817 130.189 452.42C123.011 434.194 132.149 340.93 136.936 297.992L107 219.244V216.678C107 172.967 172.376 51.9842 179.798 38.3308L200.971 0C213.862 88.8091 220.303 133.253 220.294 133.332L230.72 205.298L244.436 227.588C257.616 223.191 279.99 217.086 302.646 217.086C325.326 217.086 347.851 223.212 361.088 227.601L374.797 205.301L404.5 0L425.235 38.3308ZM303.097 682.994C318.738 682.994 341.013 676.001 346.573 657.471C345.976 657.489 345.401 657.538 344.805 657.538C341.91 657.516 339.019 657.296 336.154 656.881C328.087 667.974 315.518 671.336 302.787 671.336C290.076 671.336 277.532 667.942 269.479 656.867C266.59 657.296 263.675 657.52 260.755 657.538C260.169 657.538 259.604 657.489 259.028 657.471C264.645 676.001 287.22 682.994 303.097 682.994ZM284.78 652.533C290.069 656.175 296.339 658.125 302.76 658.125C309.181 658.125 315.451 656.175 320.74 652.533C317.064 650.925 313.565 648.938 310.3 646.606C307.847 647.239 305.314 647.509 302.783 647.406C300.231 647.502 297.679 647.227 295.206 646.588C291.952 648.934 288.457 650.927 284.78 652.533ZM395.917 514.283C415.135 490.699 444.062 452.717 448.256 442.085C451.416 431.143 446.023 358.586 439.162 297.775L438.785 294.402L444.457 279.296C425.76 259.604 412.72 232.618 403.808 207.136L402.652 215.141L373.134 263.074L361.607 258.22C361.324 258.098 331.229 245.648 302.663 245.648C273.913 245.648 244.305 258.088 244.016 258.21L232.471 263.105L202.92 215.151L202.044 209.008C193.038 234.243 179.981 260.755 161.375 280.018L166.791 294.413L166.413 297.789C159.55 358.586 154.159 431.143 157.424 442.362C161.509 452.734 190.443 490.717 209.649 514.283L212.855 518.218L212.837 523.264C212.837 523.736 212.894 570.393 224.877 602.857C233.576 626.405 252.874 628.922 260.779 628.922C280.65 628.922 289.056 610.909 289.402 610.14C294.059 601.088 296.387 586.218 296.387 565.528H308.4C308.4 582.15 310.905 597.053 315.913 610.238C316.217 610.892 324.835 628.967 344.805 628.967C352.692 628.967 371.997 626.423 380.69 602.874C392.712 570.295 392.726 523.736 392.726 523.282L392.712 518.235L395.917 514.283Z" fill="#333152"/>
<path d="M392.642 387.478H334.788V388.079C334.788 408.038 352.257 424.205 372.749 424.205C393.247 424.205 410.718 408.034 410.718 388.079V387.478H392.642Z" fill="#333152"/>
<path d="M349.249 387.478V388.079C349.304 393.797 351.614 399.263 355.677 403.288C359.74 407.313 365.228 409.57 370.947 409.57C376.666 409.57 382.154 407.313 386.217 403.288C390.28 399.263 392.591 393.797 392.645 388.079V387.478H349.249Z" fill="white"/>
<path d="M367.475 387.478C367.383 387.49 367.291 387.512 367.203 387.544C368.464 387.806 369.163 390.63 368.891 392.507C368.682 393.875 367.99 395.123 366.94 396.025C365.89 396.928 364.552 397.424 363.168 397.424C363.678 399.598 364.927 401.528 366.702 402.884C368.476 404.24 370.666 404.938 372.898 404.859C375.13 404.779 377.266 403.928 378.94 402.45C380.614 400.971 381.723 398.958 382.078 396.753C382.616 392.93 380.753 387.478 377.643 387.478H367.475Z" fill="#333152"/>
<path d="M252.987 387.478H195.138V388.079C195.138 408.038 212.611 424.205 233.099 424.205C253.598 424.205 271.071 408.034 271.071 388.079V387.478H252.987Z" fill="#333152"/>
<path d="M209.603 387.478V388.079C209.656 393.797 211.965 399.264 216.028 403.289C220.091 407.314 225.578 409.573 231.297 409.573C237.016 409.573 242.504 407.314 246.567 403.289C250.629 399.264 252.938 393.797 252.991 388.079V387.478H209.603Z" fill="white"/>
<path d="M237.997 387.478H227.818C227.728 387.491 227.639 387.513 227.553 387.544C228.81 387.806 229.505 390.63 229.241 392.507C229.032 393.877 228.34 395.126 227.288 396.029C226.237 396.931 224.896 397.426 223.511 397.424C224.021 399.598 225.27 401.528 227.045 402.884C228.819 404.239 231.009 404.937 233.241 404.858C235.473 404.779 237.608 403.928 239.282 402.449C240.956 400.971 242.066 398.958 242.42 396.753C242.964 392.93 241.107 387.478 237.997 387.478Z" fill="#333152"/>
<path d="M388.277 364.685C390.706 362.057 411.329 338.949 383.748 338.949C358.825 338.949 340.893 358.811 336.14 364.685H388.277Z" fill="#C3997D"/>
<path d="M269.311 364.685C264.562 358.811 246.63 338.949 221.7 338.949C194.133 338.949 214.755 362.057 217.17 364.685H269.311Z" fill="#D7B79F"/>
<path d="M136.718 214.353C138.356 191.68 162.24 137.356 185.023 91.5742L191.096 133.433C188.78 149.085 178.195 210.465 149.802 249.156L136.718 214.353Z" fill="#D7B79F"/>
<path d="M414.953 130.173L420.549 91.5767C443.328 137.355 467.23 191.682 468.866 214.355L456.088 248.332C425.414 205.74 415.789 136.501 414.953 130.173Z" fill="#C3997D"/>
<path d="M281.512 590.948C270.813 582.931 259.837 572.813 259.837 565.055C259.837 559.959 268.964 544.246 268.964 544.246H336.83C336.83 544.246 345.73 558.177 345.73 565.055C345.73 572.282 334.652 582.117 323.598 590.134C319.835 583.735 315.048 582.623 312.836 587.67C311.694 590.281 311.469 594.045 312.027 597.98C306.007 601.821 301.608 604.295 301.608 604.295C301.608 604.295 298.211 602.334 293.354 599.182C294.137 594.817 293.986 590.546 292.725 587.67C290.494 582.557 285.611 583.766 281.819 590.396C281.715 590.578 281.612 590.759 281.512 590.948Z" fill="#333152"/>
<mask id="mask4_1332_29278" style="mask-type:alpha" maskUnits="userSpaceOnUse" x="186" y="499" width="238" height="163">
<path d="M199.009 613.946C188.92 594.632 186.398 557.612 186.398 541.516V502.74C265.778 497.619 424.243 495.131 423.056 526.152C421.869 557.173 402.284 604.435 392.639 624.189C384.726 623.213 367.415 627.262 361.48 651.259C354.062 681.255 211.621 638.09 199.009 613.946Z" fill="#C4C4C4"/>
</mask>
<g mask="url(#mask4_1332_29278)">
<path d="M444.448 697.027L422.315 500.711H300.676C300.676 656.526 300.676 756.206 300.676 799.753L302.428 801.442C349.752 768.398 397.091 733.593 444.448 697.027Z" fill="#3B3B63"/>
<path d="M160.484 698.575L302.428 801.441L302.499 494.731H179.568L160.484 698.575Z" fill="#53537A"/>
<path d="M363.166 640.465C363.166 674.193 331.812 690.913 303.049 690.913C274.285 690.913 242.297 674.193 242.297 640.465" fill="#BC9375"/>
<path d="M302.728 657.908C279.636 657.908 268.407 640.886 268.407 605.893H279.418C279.418 646.861 295.158 646.86 302.728 646.86C310.295 646.86 326.039 646.861 326.039 605.893H337.045C337.045 640.886 325.817 657.908 302.728 657.908Z" fill="white"/>
<path d="M302.425 614.436C309.53 633.204 323.263 642.588 343.623 642.588C363.559 642.588 384.361 632.048 393.834 605.999C407.066 569.561 406.933 518.843 406.933 518.843C406.933 518.843 465.733 444.908 465.733 419.908C465.733 419.908 411.297 419.908 302.425 419.908V614.436Z" fill="#C49A7E"/>
<path d="M136.751 419.908C136.751 448.86 195.042 518.843 195.042 518.843C195.042 518.843 194.899 569.546 208.145 605.999C217.596 632.03 238.42 642.588 258.359 642.588C278.72 642.588 293.409 633.204 302.427 614.436V419.908H136.751Z" fill="#D8B7A0"/>
<path d="M458.712 253.432C413.385 206.752 402.049 109.412 402.049 109.412C393.586 140.084 375.191 230.518 375.191 230.518C375.191 230.518 339.463 218.912 300.979 218.851C299.716 218.851 299.716 340.697 300.979 584.388L336.032 557.662L341.376 486.663L344.428 428.71L383.439 473.417L433.693 488.167C433.693 488.167 452.496 474.7 452.496 474.75C460.479 463.52 463.126 453.954 465.058 448.989C472.037 430.928 456.365 292.807 456.365 292.807C450.801 281.109 458.712 253.432 458.712 253.432Z" fill="#3B3B63"/>
<path d="M230.613 230.511C230.613 230.511 212.211 140.081 203.755 109.405C203.755 109.405 192.426 206.745 147.091 253.426C147.091 253.426 155.002 281.107 149.438 292.801C149.438 292.801 133.766 430.929 140.746 448.961C142.674 453.929 145.343 463.492 153.315 474.723C153.315 474.672 172.129 488.142 172.129 488.142L222.372 473.389L261.375 428.689L265.032 494.297L268.204 557.769L302.46 583.663V218.167C263.832 218.232 230.613 230.511 230.613 230.511Z" fill="#53537A"/>
<path d="M426.996 19.2048C434.516 33.2826 499.167 163.429 499.167 208.498L470.492 286.945C475.344 331.209 484.993 427.388 477.708 446.179C473.212 457.801 456.071 481.711 441.41 501.073L461.454 684.827L434.358 704.424L419.293 570.161C417.222 583.786 414.108 598.334 409.361 611.398C403.084 628.69 391.991 641.794 377.803 649.555C376.971 691.008 338.91 713.372 303.049 713.372C266.89 713.372 228.51 691.026 227.664 649.587C213.447 641.812 202.34 628.708 196.056 611.398C191.498 598.838 188.428 584.932 186.346 571.764L171.934 706.892L144.691 686.976L164.365 501.634C149.589 482.186 132.119 457.92 127.579 446.168C120.295 427.374 129.568 331.209 134.426 286.938L104.047 205.742V203.097C104.047 158.027 170.391 33.2826 177.923 19.2048L199.409 -20.3179C212.492 71.2523 219.028 117.078 219.019 117.16L229.599 191.363L243.519 214.345C256.894 209.812 279.598 203.517 302.59 203.517C325.607 203.517 348.466 209.833 361.898 214.359L375.81 191.366L405.953 -20.3179L426.996 19.2048ZM303.049 683.908C318.921 683.908 339.085 676.758 346.72 657.662C346.114 657.68 345.979 657.662 345.374 657.662C342.285 657.662 338.833 657.293 336.032 656.909C327.845 668.344 315.653 671.89 302.733 671.89C289.835 671.89 277.105 668.389 268.932 656.971C266.112 657.374 263.192 657.662 260.079 657.662C259.484 657.662 258.911 657.611 258.327 657.593C264.027 676.7 286.936 683.908 303.049 683.908ZM284.46 652.503C289.383 656.206 295.467 658.266 302.744 658.266C309.982 658.266 316.037 656.191 320.952 652.503C317.033 650.752 313.486 648.667 310.358 646.391C307.527 647.233 304.819 647.215 302.73 647.215C300.63 647.215 297.893 647.215 295.041 646.374C291.92 648.667 288.38 650.752 284.46 652.503ZM400.16 508.802C419.662 484.486 446.104 446.474 450.357 435.513C453.563 424.228 448.092 349.418 441.13 286.715L440.747 283.238L446.501 267.662C427.53 247.357 414.294 219.533 405.251 193.257L404.076 201.511L374.123 250.934L362.425 245.93C362.138 245.804 331.597 232.967 302.608 232.967C273.432 232.967 243.386 245.794 243.092 245.919L231.376 250.967L201.387 201.522L200.499 195.188C191.359 221.208 178.109 248.544 159.227 268.406L164.723 283.249L164.34 286.729C157.375 349.418 151.903 424.228 155.218 435.797C159.363 446.492 179.885 477.336 199.376 501.634L211.469 514.012L211.451 519.214C211.451 519.702 211.509 567.806 223.669 601.282C232.498 625.562 252.082 628.158 260.104 628.158C280.268 628.158 288.799 609.583 289.151 608.792C293.876 599.459 296.239 584.125 296.239 562.79H308.43C308.43 579.931 310.972 595.298 316.055 608.893C316.363 609.565 325.109 628.205 345.374 628.205C353.378 628.205 372.969 625.58 381.79 601.3C393.99 567.706 394.004 519.702 394.004 519.232L393.99 514.03L400.16 508.802Z" fill="#333152"/>
<mask id="mask5_1332_29278" style="mask-type:alpha" maskUnits="userSpaceOnUse" x="259" y="540" width="88" height="63">
<path d="M281.142 589.001C270.285 580.735 259.146 570.305 259.146 562.304C259.146 557.048 268.408 540.849 268.408 540.849H337.279C337.279 540.849 346.312 555.211 346.312 562.304C346.312 569.754 335.069 579.897 323.851 588.163C320.033 581.566 315.175 580.42 312.93 585.62C311.771 588.315 311.543 592.194 312.109 596.253C306 600.213 301.536 602.764 301.536 602.764C301.536 602.764 298.088 600.743 293.159 597.491C293.954 592.992 293.801 588.587 292.521 585.62C290.257 580.35 285.302 581.598 281.454 588.432C281.348 588.619 281.244 588.809 281.142 589.001Z" fill="white"/>
</mask>
<g mask="url(#mask5_1332_29278)">
<path d="M281.142 589.002C270.285 580.736 259.146 570.306 259.146 562.305C259.146 557.049 268.408 540.851 268.408 540.851H337.279C337.279 540.851 346.312 555.212 346.312 562.305C346.312 569.755 335.069 579.898 323.851 588.165C320.033 581.567 315.175 580.421 312.93 585.622C311.771 588.316 311.543 592.195 312.109 596.255C306 600.214 301.536 602.766 301.536 602.766C301.536 602.766 298.088 600.745 293.159 597.493C293.954 592.993 293.801 588.589 292.521 585.622C290.257 580.352 285.302 581.599 281.454 588.433C281.348 588.621 281.244 588.81 281.142 589.002Z" fill="#333152"/>
</g>
</g>
<path d="M311.173 354.976C310.486 354.942 309.493 354.885 308.233 354.799C309.493 354.885 310.486 354.942 311.173 354.976Z" fill="url(#paint3_linear_1332_29278)"/>
<mask id="mask6_1332_29278" style="mask-type:alpha" maskUnits="userSpaceOnUse" x="0" y="123" width="604" height="751">
<path fill-rule="evenodd" clip-rule="evenodd" d="M301.976 873.77L202.859 803.891L0 660.873V164.42C0 164.42 111.659 123 302.386 123C493.115 123 603.958 164.42 603.958 164.42V660.873L301.976 873.77Z" fill="white"/>
</mask>
<g mask="url(#mask6_1332_29278)">
<path d="M490.754 505.827C433.19 512.026 341.31 593.279 302.566 633.13L557.173 545.678C559.018 529.811 548.317 499.628 490.754 505.827Z" fill="url(#paint4_linear_1332_29278)"/>
<path d="M490.754 516.897C433.19 523.096 341.31 604.349 302.566 644.2L557.173 556.748C559.018 540.881 548.317 510.697 490.754 516.897Z" fill="black" fill-opacity="0.1"/>
<path d="M490.754 527.966C433.19 534.165 341.31 615.418 302.566 655.27L557.173 567.818C559.018 551.951 548.317 521.767 490.754 527.966Z" fill="black" fill-opacity="0.1"/>
<path d="M490.754 539.036C433.19 545.235 341.31 626.488 302.566 666.34L557.173 578.888C559.018 563.021 548.317 532.837 490.754 539.036Z" fill="black" fill-opacity="0.1"/>
<path d="M99.1766 505.827C156.74 512.026 248.62 593.279 287.365 633.13L32.7574 545.678C30.9124 529.811 41.6133 499.628 99.1766 505.827Z" fill="url(#paint5_linear_1332_29278)"/>
<path d="M99.1766 516.897C156.74 523.096 248.62 604.349 287.365 644.2L32.7574 556.748C30.9124 540.881 41.6133 510.697 99.1766 516.897Z" fill="black" fill-opacity="0.1"/>
<path d="M99.1766 527.966C156.74 534.165 248.62 615.418 287.365 655.27L32.7574 567.818C30.9124 551.951 41.6133 521.767 99.1766 527.966Z" fill="black" fill-opacity="0.1"/>
<path d="M99.1766 539.036C156.74 545.235 248.62 626.488 287.365 666.34L32.7574 578.888C30.9124 563.021 41.6133 532.837 99.1766 539.036Z" fill="black" fill-opacity="0.1"/>
<g filter="url(#filter1_d_1332_29278)">
<path d="M26.3723 541.88C49.8884 625.611 65.7794 711.298 73.8509 797.893C154.242 816.699 236.113 846.638 301.886 898.173C301.851 817.912 301.886 628.83 301.886 628.83C270.578 604.172 235.586 584.592 198.194 570.807C143.198 550.634 84.9412 540.827 26.3723 541.88Z" fill="url(#paint6_linear_1332_29278)"/>
<path d="M577.399 541.889C553.883 625.62 537.992 711.307 529.92 797.902C449.529 816.707 367.659 846.646 301.886 898.182C301.92 817.92 301.886 628.832 301.886 628.832C333.195 604.177 368.186 584.599 405.577 570.816C460.573 550.643 518.83 540.835 577.399 541.889Z" fill="url(#paint7_linear_1332_29278)"/>
<path d="M577.399 541.889C553.883 625.62 537.992 711.307 529.92 797.902C449.529 816.707 367.659 846.646 301.886 898.182C301.92 817.92 301.886 628.832 301.886 628.832C333.195 604.177 368.186 584.599 405.577 570.816C460.573 550.643 518.83 540.835 577.399 541.889Z" fill="black" fill-opacity="0.1"/>
</g>
</g>
<g style="mix-blend-mode:multiply">
<path fill-rule="evenodd" clip-rule="evenodd" d="M302.976 843.77L203.859 773.891L1 630.873V134.42C1 134.42 112.659 93 303.386 93C494.115 93 604.958 134.42 604.958 134.42V630.873L302.976 843.77Z" fill="url(#paint8_linear_1332_29278)" fill-opacity="0.5"/>
</g>
<defs>
<filter id="filter0_d_1332_29278" x="-92.7275" y="117.89" width="789.418" height="512.777" filterUnits="userSpaceOnUse" color-interpolation-filters="sRGB">
<feFlood flood-opacity="0" result="BackgroundImageFix"/>
<feColorMatrix in="SourceAlpha" type="matrix" values="0 0 0 0 0 0 0 0 0 0 0 0 0 0 0 0 0 0 127 0" result="hardAlpha"/>
<feOffset dy="3.20121"/>
<feGaussianBlur stdDeviation="2.40091"/>
<feColorMatrix type="matrix" values="0 0 0 0 0.512977 0 0 0 0 0.512977 0 0 0 0 0.659505 0 0 0 0.2 0"/>
<feBlend mode="normal" in2="BackgroundImageFix" result="effect1_dropShadow_1332_29278"/>
<feBlend mode="normal" in="SourceGraphic" in2="effect1_dropShadow_1332_29278" result="shape"/>
</filter>
<filter id="filter1_d_1332_29278" x="6.37231" y="525.804" width="591.026" height="396.378" filterUnits="userSpaceOnUse" color-interpolation-filters="sRGB">
<feFlood flood-opacity="0" result="BackgroundImageFix"/>
<feColorMatrix in="SourceAlpha" type="matrix" values="0 0 0 0 0 0 0 0 0 0 0 0 0 0 0 0 0 0 127 0" result="hardAlpha"/>
<feOffset dy="4"/>
<feGaussianBlur stdDeviation="10"/>
<feComposite in2="hardAlpha" operator="out"/>
<feColorMatrix type="matrix" values="0 0 0 0 0 0 0 0 0 0 0 0 0 0 0 0 0 0 0.25 0"/>
<feBlend mode="normal" in2="BackgroundImageFix" result="effect1_dropShadow_1332_29278"/>
<feBlend mode="normal" in="SourceGraphic" in2="effect1_dropShadow_1332_29278" result="shape"/>
</filter>
<linearGradient id="paint0_linear_1332_29278" x1="-379.913" y1="119.491" x2="769.858" y2="867.106" gradientUnits="userSpaceOnUse">
<stop stop-color="#FFE792"/>
<stop offset="1" stop-color="#F99048"/>
</linearGradient>
<linearGradient id="paint1_linear_1332_29278" x1="573.006" y1="-127" x2="-448.782" y2="1468.47" gradientUnits="userSpaceOnUse">
<stop stop-color="#FFE792"/>
<stop offset="1" stop-color="#F99048"/>
</linearGradient>
<linearGradient id="paint2_linear_1332_29278" x1="106.855" y1="275.192" x2="230.832" y2="805.658" gradientUnits="userSpaceOnUse">
<stop stop-color="white"/>
<stop offset="1" stop-color="white" stop-opacity="0"/>
</linearGradient>
<linearGradient id="paint3_linear_1332_29278" x1="308.233" y1="354.799" x2="308.434" y2="355.634" gradientUnits="userSpaceOnUse">
<stop stop-color="#4BD6B5"/>
<stop offset="1" stop-color="#168982"/>
</linearGradient>
<linearGradient id="paint4_linear_1332_29278" x1="462.5" y1="505" x2="463" y2="569" gradientUnits="userSpaceOnUse">
<stop stop-color="white"/>
<stop offset="1" stop-color="#949494"/>
<stop offset="1" stop-color="#949494"/>
</linearGradient>
<linearGradient id="paint5_linear_1332_29278" x1="127.43" y1="505" x2="126.93" y2="569" gradientUnits="userSpaceOnUse">
<stop stop-color="white"/>
<stop offset="1" stop-color="#949494"/>
<stop offset="1" stop-color="#949494"/>
</linearGradient>
<linearGradient id="paint6_linear_1332_29278" x1="302.012" y1="897.981" x2="26.3979" y2="541.511" gradientUnits="userSpaceOnUse">
<stop stop-color="#FFE792"/>
<stop offset="1" stop-color="#F99048"/>
</linearGradient>
<linearGradient id="paint7_linear_1332_29278" x1="439.279" y1="856.468" x2="293.71" y2="648.908" gradientUnits="userSpaceOnUse">
<stop stop-color="#FFE792"/>
<stop offset="1" stop-color="#F99048"/>
</linearGradient>
<linearGradient id="paint8_linear_1332_29278" x1="303" y1="595.5" x2="302.979" y2="843.77" gradientUnits="userSpaceOnUse">
<stop stop-color="white" stop-opacity="0"/>
<stop offset="1" stop-color="#FF4D00"/>
</linearGradient>
</defs>
</svg>
